<svg id="Camada_1" data-name="Camada 1" xmlns="http://www.w3.org/2000/svg" viewBox="0 0 100 100"><defs><style>.cls-1{fill:#d4d4d4;}.cls-2{fill:#dae9fe;}.cls-3{fill:#956a5b;}.cls-4{fill:#c2dcfe;}.cls-5{fill:#f5d090;}.cls-6{fill:#ebbc82;}.cls-7{fill:#785353;}.cls-8{fill:#f5d08f;}.cls-9{fill:#e1a875;}.cls-10{fill:#fedf9e;}.cls-11{fill:#c7c4c9;}.cls-12{fill:#b6b1b6;}.cls-13{fill:#fefefe;}</style></defs><rect class="cls-1" width="100" height="100" rx="10"/><path class="cls-2" d="M70.89,67.76c4.43,1.7,8.86,3.42,13.3,5.08a12,12,0,0,1,5.3,3.27,3.68,3.68,0,0,1,.72,1c-.1.46-.51.65-.84.9l-9.22,7.21a6.42,6.42,0,0,0-2.56,5.33c0,2.7,0,5.4,0,8.1a1.76,1.76,0,0,1-.25,1.3H51.56a1.63,1.63,0,0,1-.27-1.21c0-6.7,0-13.4,0-20.1,0-.93.15-1.81,1.09-2.22a2.25,2.25,0,0,1,2.5.62c.34.3.65.63,1,.94a2.81,2.81,0,0,0,4.31,0c3.19-3.16,6.35-6.35,9.54-9.52C70,68.15,70.3,67.68,70.89,67.76Z" transform="translate(0)"/><path class="cls-3" d="M61.9,0A18.65,18.65,0,0,1,68,2.28c2.49,1.6,4.71,3.44,5.64,6.41.17.56.26,1.14.39,1.7.1,3.48,0,7,0,10.43,0,1.5,0,3,0,4.49,0,.61-.16.94-.82.83a5.69,5.69,0,0,0-2.58.33,3.65,3.65,0,0,1-4-1,16,16,0,0,1-2.85-5c-.14-.47-.3-.93-.46-1.39-.45-1.25-.85-1.49-2.13-1.24a34.29,34.29,0,0,1-7.06.76A37.66,37.66,0,0,1,40.78,16a14.15,14.15,0,0,1-3.37-2.11A10.28,10.28,0,0,1,35.28,7c0-.91-.21-1.8-.08-2.71.06-.41-.17-.59-.56-.63s-.79,0-1.08-.31a3.17,3.17,0,0,0,3.26-1.75C37.37.64,38.5.4,39.45,0Z" transform="translate(0)"/><path class="cls-2" d="M9.6,77.14c1.44-2.3,3.69-3.41,6.14-4.32,4.19-1.55,8.34-3.21,12.52-4.8a8.6,8.6,0,0,0,.85-.45,2.17,2.17,0,0,1,.72.63l9.58,9.58c1.65,1.64,3.26,1.63,4.94,0,.37-.36.72-.75,1.12-1.09a1.83,1.83,0,0,1,1.92-.29A1.7,1.7,0,0,1,48.5,78c0,.22,0,.45,0,.68V98.58a1.92,1.92,0,0,1-.27,1.4H42.38c0-.62.81-.83.85-1.46.11-2.08,0-4.16,0-6.24,0-1-.47-1.44-1.46-1.66a13,13,0,0,0-2.33-.12,3,3,0,0,1-1.53-.2.75.75,0,0,1-.25-.44c-.11-1.35,0-2.71-.08-4.07-.07-1-.46-1.44-1.19-1.51-.89-.09-1.42.4-1.5,1.48-.11,1.36,0,2.72-.08,4.08a.78.78,0,0,1-.23.45,1.9,1.9,0,0,1-1.12.21H32c-2.33,0-2.81.48-2.79,2.78,0,1.75-.1,3.49,0,5.24,0,.63.8.83.84,1.45H22.47a1.76,1.76,0,0,1-.26-1.3c0-2.64-.08-5.28,0-7.91A6.62,6.62,0,0,0,19.42,85L10.8,78.27A3.92,3.92,0,0,1,9.6,77.14Z" transform="translate(0)"/><path class="cls-4" d="M48.24,100c0-7.12,0-14.25,0-21.37,0-.84-.07-1.62-.9-2a1.87,1.87,0,0,0-2.21.74,5.73,5.73,0,0,1-1.76,1.52,3,3,0,0,1-3.69-.47C36.24,75,32.83,71.58,29.4,68.16a.8.8,0,0,1-.29-.59c1.17-1.57,2.36-3.14,3.53-4.72a1.71,1.71,0,0,1,2.72-.47c.56.37,1.13.72,1.7,1.08a15.53,15.53,0,0,1,3.41,2.2c2.51,1.69,5,3.44,7.43,5.19a3.22,3.22,0,0,0,4.06,0c3.26-2.24,6.5-4.54,9.75-6.8.35-.25.63-.68,1.17-.59l1.93-1.28a1.38,1.38,0,0,1,2,.21c1.5,1.68,2.77,3.55,4.1,5.36C69.59,69,68.27,70.29,67,71.57c-2.26,2.25-4.5,4.51-6.76,6.76a3,3,0,0,1-4.43,0c-.41-.41-.81-.84-1.25-1.23a1.89,1.89,0,0,0-2.15-.45,1.82,1.82,0,0,0-.84,1.84c0,6.21,0,12.43,0,18.64V100Z" transform="translate(0)"/><path class="cls-4" d="M9.6,77.14a36.53,36.53,0,0,1,4,3c2,1.49,3.91,3.08,5.88,4.6a6.72,6.72,0,0,1,3,5.79c-.09,3.15,0,6.31,0,9.46H11.93A5.17,5.17,0,0,1,8.1,96,6.34,6.34,0,0,1,8,95c0-3.9.05-7.8,0-11.69A11.2,11.2,0,0,1,9.6,77.14Z" transform="translate(0)"/><path class="cls-4" d="M77.33,100c0-2.92,0-5.84,0-8.76a7.21,7.21,0,0,1,2.94-6.4c3.36-2.5,6.65-5.12,10-7.68A8.47,8.47,0,0,1,91.78,82c0,4.33-.1,8.65,0,13a5,5,0,0,1-3.44,4.87,1.35,1.35,0,0,0-.32.19Z" transform="translate(0)"/><path class="cls-5" d="M43.36,98.81c0,.62-.61.81-1,1.17H30.08c-.36-.36-.92-.56-1-1.17a.48.48,0,0,1-.08-.18c-.18-2.11,0-2.28,2.1-2.28h10.2a9.49,9.49,0,0,1,1.07,0c.72.06,1.16.38,1.06,1.18C43.4,98,43.55,98.4,43.36,98.81Z" transform="translate(0)"/><path class="cls-6" d="M37.51,13.9c.14-.09.28-.19.44,0,2,1.94,4.56,2.49,7.07,3.2a34,34,0,0,0,9.77,1.27,32,32,0,0,0,6.82-.82,1.43,1.43,0,0,1,1.84,1c.24.6.4,1.23.59,1.84a1.15,1.15,0,0,1-.68.35,38.2,38.2,0,0,1-12.47,1A49.76,49.76,0,0,1,43,20.19c-2.09-.51-3.28.11-4.12,2.08a15.79,15.79,0,0,1-1.77,3.35,7.05,7.05,0,0,0-1.48,4.16c-.05,3.5-.34,7,.32,10.5,1.67,8.89,7,14.48,15.65,16.94.4.11,1,0,1.13.58-.33.47-.83.44-1.32.47a21.13,21.13,0,0,1-13.3-3.55c-.18-.12-.38-.35-.6-.26s-.15.46-.17.7a11.9,11.9,0,0,1-.1,2.23.5.5,0,0,1-.19.24,9.32,9.32,0,0,1-.13-3,2.09,2.09,0,0,0-.76-1.77A20.55,20.55,0,0,1,29.64,42.3a26.44,26.44,0,0,1-.7-5.38,1.28,1.28,0,0,0-1.38-1.4c-2.62-.15-4.36-1.52-4.9-3.81s.46-4.18,2.71-5.49l.42-.24a3,3,0,0,1,2.61-.32c.38.06.74.24,1.11.33a3.18,3.18,0,0,0,3.54-1.21c2.16-2.84,3.16-6.15,4-9.54C37.14,14.77,37.12,14.26,37.51,13.9Z" transform="translate(0)"/><path class="cls-7" d="M37.51,13.9A25.3,25.3,0,0,1,33.21,25a3.21,3.21,0,0,1-3.8,1.2A6.22,6.22,0,0,0,25.79,26c0-5.07-.06-10.13,0-15.2a7.85,7.85,0,0,1,7.75-7.47c.19,0,.39,0,.58,0,1.4,0,1.18,0,1.3,1.37.19,2.05-.2,4.16.63,6.14a11.33,11.33,0,0,0,1,1.91C37.25,13.11,37.57,13.42,37.51,13.9Z" transform="translate(0)"/><path class="cls-6" d="M62.88,63.47c-3.69,2.59-7.36,5.2-11.06,7.77a3.09,3.09,0,0,1-3.81,0c-3.65-2.58-7.38-5-10.95-7.74l0-5.83,0,0c.47-.13.81.16,1.17.36A23.32,23.32,0,0,0,50.63,61a23.58,23.58,0,0,0,11-3.11c.34-.19.68-.55,1.15-.31Z" transform="translate(0)"/><path class="cls-8" d="M52.73,57.81a27.84,27.84,0,0,1-6-2.13c-6-3.38-9.83-8.37-11-15.27-.6-3.52-.34-7.06-.35-10.58a6.79,6.79,0,0,1,1.41-4.17,15.82,15.82,0,0,0,2-3.68,3.21,3.21,0,0,1,4.13-2.1,42.6,42.6,0,0,0,13,1.62,40.53,40.53,0,0,0,7.36-1c.29-.07.58-.09.86-.14a29.49,29.49,0,0,0,2.13,4.05c1.43,2,2.52,2.41,4.9,1.66a3.52,3.52,0,0,1,2-.19c.84.24,1-.05,1-.82,0-4.71,0-9.43,0-14.15,0-.16,0-.32,0-.48a2.45,2.45,0,0,1,.14,1.34q0,6.78,0,13.56a1.05,1.05,0,0,0,.55,1.1,4.74,4.74,0,0,1,2.49,5.23,4.88,4.88,0,0,1-4.73,3.91c-1.3.11-1.6.45-1.63,1.77a20.68,20.68,0,0,1-7.65,16,5.3,5.3,0,0,0-.38.43,10.68,10.68,0,0,1-3.68,2.48A18.91,18.91,0,0,1,53.83,58C53.45,58,53.06,58.14,52.73,57.81Z" transform="translate(0)"/><path class="cls-9" d="M52.73,57.81a17.82,17.82,0,0,0,6.9-2.14c1.1-.59,2.15-1.3,3.22-2,0,1.3,0,2.59,0,3.89a30.5,30.5,0,0,1-7.15,3A23.54,23.54,0,0,1,37.9,58l-.77-.41V53.79c1.26.68,2.33,1.5,3.54,2.1A21.82,21.82,0,0,0,51.88,58,4.94,4.94,0,0,0,52.73,57.81Z" transform="translate(0)"/><path class="cls-10" d="M43.36,98.81c0-2.06.5-2.17-2.16-2.15-3.47,0-7,0-10.42,0-1.67,0-1.67,0-1.67,1.66v.49c-.34-.4-.17-.88-.18-1.31,0-1.63,0-3.25,0-4.87s.57-2.33,2.32-2.38c1.11,0,2.21,0,3.31,0,.24.14.29.42.43.63a1.35,1.35,0,0,0,2.48,0c.14-.22.19-.49.44-.63a30.58,30.58,0,0,1,4.17.12A1.56,1.56,0,0,1,43.51,92c.07,2.17,0,4.35,0,6.52C43.52,98.58,43.42,98.7,43.36,98.81Z" transform="translate(0)"/><path class="cls-11" d="M34.6,89.83c0-1.36,0-2.72,0-4.07s.58-1.8,1.65-1.8,1.63.57,1.65,1.8,0,2.71,0,4.07A2.07,2.07,0,0,0,34.6,89.83Z" transform="translate(0)"/><path class="cls-12" d="M34.6,89.83c1.17-1.58,2.08-1.58,3.27,0,0,.14,0,.28,0,.42C37.65,91.33,37,92,36.23,92s-1.41-.62-1.67-1.71Z" transform="translate(0)"/><path class="cls-13" d="M50.07,40.27c1.86,0,3.71,0,5.57,0s2.5,1,1.91,2.76a8,8,0,0,1-15.17,0c-.63-1.82,0-2.76,1.94-2.81S48.16,40.27,50.07,40.27Z" transform="translate(0)"/><path class="cls-7" d="M58,31.46c0-1.71.51-2.43,1.7-2.38s1.66,1,1.55,2.67-.67,2.18-1.83,2.07S58,33.05,58,31.46Z" transform="translate(0)"/><path class="cls-7" d="M38.67,31.4c0-1.67.47-2.34,1.64-2.32h.2c1.06.13,1.4.88,1.33,3,0,1.06-.54,1.67-1.44,1.74a1.53,1.53,0,0,1-1.72-1.45C38.65,32.05,38.67,31.73,38.67,31.4Z" transform="translate(0)"/></svg>